<svg xmlns="http://www.w3.org/2000/svg" width="24" height="24" viewBox="0 0 24 24"><path fill="#2270B1" d="M20.281 11.416l3.168-6.043c.28-.519.443-1.114.443-1.741.001-2.01-1.621-3.632-3.632-3.632-1.395 0-2.595.778-3.211 1.935l-.919 1.719v7.762h4.151z"/><path fill="#43AA49" d="M16.141 11.405v-7.751l-.919-1.719c-.617-1.157-1.827-1.935-3.222-1.935s-2.605.778-3.222 1.935l-.919 1.719v7.751h8.282z"/><path fill="#27AA9B" d="M3.719 11.416l-3.168-6.043c-.28-.519-.443-1.114-.443-1.741 0-2.01 1.621-3.632 3.633-3.632 1.395 0 2.594.778 3.21 1.935l.919 1.719v7.762h-4.151z"/><path fill="#176D3D" d="M12 11.405l2.584 4.843c.313.552.908.92 1.578.92.682 0 1.287-.379 1.59-.941l2.529-4.811-4.141-7.762-4.14 7.751z"/><path fill="#22955A" d="M12 11.405l-2.584 4.843c-.313.552-.908.92-1.578.92-.681 0-1.287-.379-1.589-.941l-2.53-4.811 4.141-7.762 4.14 7.751z"/><path fill="#00AA9C" d="M6.833 3.643"/><path fill="#DADFDD" d="M8.627 21.405c.119.411.195.843.26 1.276.011-.455.064-.865.162-1.276l.681-2.821h1.103l-1.363 5.199h-1.07l-.94-3.318c-.065-.217-.141-.52-.162-.94-.021.346-.076.659-.151.94l-.93 3.318h-1.07l-1.362-5.211h1.114l.681 2.887c.076.357.119.746.141 1.168.076-.486.184-.887.271-1.222l.768-2.843h1.092l.775 2.843zm5.503-2.053c-1.114 0-1.816.725-1.816 1.838 0 1.081.638 1.783 1.708 1.783.595 0 1.113-.194 1.557-.605l-.011 1.146c-.476.281-.995.41-1.567.41-1.687 0-2.843-1.167-2.843-2.734 0-1.535 1.125-2.735 2.865-2.735.66 0 1.168.162 1.59.368l-.033 1.113c-.38-.346-.834-.584-1.45-.584zm3.005 3.07c.162.389.53.616.963.616.54 0 .843-.281.843-.681 0-.455-.433-.552-1.146-.93-.768-.4-1.211-.779-1.211-1.504 0-.821.703-1.47 1.838-1.47.627 0 1.07.216 1.416.681l-.66.627c-.162-.303-.421-.453-.777-.453-.455 0-.735.259-.735.594 0 .477.465.595 1.048.854.877.399 1.298.897 1.298 1.546 0 .94-.681 1.6-1.838 1.6-.811 0-1.384-.291-1.665-.8l.626-.68z"/></svg>